<svg version="1.1" xmlns="http://www.w3.org/2000/svg" style="display: block;" viewBox="0 0 1984 1868" width="496" height="467" preserveAspectRatio="none">
<path transform="translate(0,0)" fill="rgb(255,255,255)" d="M 0 0 L 1984 0 L 1984 1868 L 0 1868 L 0 0 z"/>
<path transform="translate(0,0)" fill="rgb(58,154,59)" d="M 1593.06 336.62 C 1595.39 337.779 1598.85 344.052 1600 346.411 C 1750.19 654.279 1698.43 1096.48 1374.55 1271.93 C 1243.73 1342.8 1106.62 1341.21 965.532 1299.9 C 986.406 1287.87 1020.09 1261.99 1039.48 1246.86 C 1065.31 1227.11 1090.98 1207.13 1116.46 1186.93 C 1271.14 1066.49 1459.44 925.869 1530.42 737.209 C 1508.06 758.132 1479.38 793.41 1457.51 816.857 C 1415.44 861.921 1371.04 904.767 1324.52 945.221 C 1284.76 980.631 1232.18 1018.39 1188.89 1049.61 C 1208.16 1012.27 1211.6 972.814 1211.15 931.368 C 1210.98 915.645 1209.67 899.064 1197.79 887.805 C 1187.89 907.549 1184.09 925.513 1176.11 944.445 C 1165.2 970.322 1151.23 1003.65 1138.26 1028.18 C 1128.5 1046.98 1117.28 1064.98 1104.7 1082.03 C 1090.98 1100.58 1070.56 1122.82 1054.89 1140.02 C 1000.23 1200.06 935.82 1267.66 863.924 1306.05 C 844.155 1316.69 823.582 1325.76 802.393 1333.18 C 773.518 1343.55 722.738 1357.3 691.809 1352.21 C 682.198 1350.63 669.555 1339.06 673.713 1326.97 C 678.817 1320.68 708.455 1320.9 717.641 1319.37 C 745.445 1314.76 772.695 1309.36 799.199 1299.49 C 849.322 1281.07 894.93 1252.15 932.971 1214.68 C 940.03 1207.62 952.535 1194.7 956.226 1185.78 C 965.869 1162.46 967.758 1128.42 970.611 1103.37 C 979.64 1024.08 1003.95 944.392 1055.38 881.966 C 1123.38 799.643 1220.97 751.765 1311.23 698.781 C 1428.96 629.68 1528.8 523.516 1574.56 393.443 C 1581.24 374.48 1584.67 355.021 1593.06 336.62 z"/>
<path transform="translate(0,0)" fill="rgb(10,36,28)" d="M 589.051 899.436 C 611.616 898.558 637.598 897.908 659.949 901.103 C 667.921 902.243 673.49 907.061 677.541 913.74 C 680.553 918.706 680.991 923.219 681.148 928.904 C 681.442 947.453 681.049 966.211 680.977 984.782 L 680.914 1090.79 L 681.067 1175.6 C 681.157 1192.5 682.275 1215.46 679.573 1232 C 678.26 1240.04 668.84 1246.6 662.094 1250.72 C 628.712 1252.37 595.981 1251.94 562.562 1251.95 L 426.5 1251.93 C 403.389 1252.03 377.402 1253.09 354.324 1250.79 C 340.171 1249.38 333.43 1237.67 333.009 1224.1 C 332.382 1203.92 332.592 1183.33 332.625 1162.89 L 332.734 1058.45 L 332.791 974.601 C 332.84 958.25 332.479 941.511 333.858 925.199 C 335.1 910.511 340.503 902.271 355.92 901.102 C 378.147 899.416 400.713 900.049 423.074 900.051 L 523.461 900.087 C 544.761 900.096 567.896 900.493 589.051 899.436 z"/>
<path transform="translate(0,0)" fill="rgb(255,255,255)" d="M 450.235 953.519 L 539.81 952.983 C 566.901 952.897 601.507 951.136 627.012 957.592 C 627.419 959.766 627.68 961.965 627.791 964.174 C 628.593 978.653 628.133 996.176 628.103 1010.95 L 628.107 1086.09 L 628.225 1148.07 C 628.242 1160.38 628.874 1173.2 627.655 1185.45 C 627.213 1189.89 626.045 1194.89 622.693 1198.11 C 619.422 1201.25 571.472 1199.06 562.5 1199.04 C 534.824 1199.02 405.597 1203.2 389.603 1195.42 C 387.629 1192.08 386.372 1185.37 386.28 1181.38 C 384.597 1109.02 385.488 1035.88 386.019 963.478 C 388.443 959.169 389.923 957.671 393.107 953.99 L 450.235 953.519 z"/>
<path transform="translate(0,0)" fill="rgb(10,36,28)" d="M 439.962 1004.28 C 463.594 1003.46 488.058 1004.25 511.767 1004 C 532.499 1003.79 556.854 1002.71 576.591 1008.78 C 579.948 1026.28 581.325 1128.04 577.27 1141.94 C 576.145 1145.79 574.476 1148.13 570.899 1149.9 C 553.101 1149.87 447.958 1152.07 437.503 1145.46 C 430.262 1130.83 434.146 1081.47 433.899 1063.07 C 433.689 1047.37 430.907 1016.37 439.962 1004.28 z"/>
<path transform="translate(0,0)" fill="rgb(10,36,28)" d="M 585.245 277.445 C 608.083 276.13 641.671 276.93 663.967 278.341 C 676.615 287.052 679.64 291.445 679.958 306.554 C 680.248 320.324 680.683 334.234 680.824 348.04 L 681.012 531.558 L 681.018 584.307 C 681.017 590.794 681.928 605.136 680.64 610.859 C 675.303 634.575 647.643 629.732 632.02 629.318 C 618.827 628.987 605.631 628.858 592.434 628.93 L 431.5 629.943 C 406.045 630.026 374.004 630.564 348.574 628.116 C 341.65 627.45 336.604 618.405 333.094 612.71 C 332.318 590.133 332.82 565.271 332.837 542.556 L 332.931 418.454 L 332.821 344.82 C 332.775 322.144 326.051 280.094 357.265 278.671 C 378.178 277.718 399.374 278.02 420.347 278.032 L 519.988 278.09 C 541.283 278.1 564.078 278.485 585.245 277.445 z"/>
<path transform="translate(0,0)" fill="rgb(255,255,255)" d="M 389.918 329.108 C 445.248 328.626 500.582 328.86 555.906 329.809 C 579.715 330.107 602.752 326.573 626.146 331.712 C 628.727 342.816 628.021 366.425 628.056 378.916 L 628.136 452.029 L 628.05 525.403 C 628.021 538.956 628.253 553.188 627.386 566.714 C 627.074 571.568 625.973 573.991 622.335 576.879 C 563.6 580.29 503.295 577.497 444.515 577.017 C 381.547 576.504 385.306 588.942 385.89 524.96 L 386.068 446.656 C 386.032 424.16 382.758 344.592 389.918 329.108 z"/>
<path transform="translate(0,0)" fill="rgb(10,36,28)" d="M 459.561 379.429 C 475.507 378.837 566.31 376.463 575.042 384.288 C 579.137 387.957 579.678 404.089 579.789 409.45 C 580.195 429.213 579.821 449.089 579.864 468.865 C 579.898 484.344 581.025 501.462 578.622 516.738 C 578.15 519.738 577.886 521.46 575.563 523.589 C 571.208 527.582 561.388 526.974 555.827 527.093 C 528.212 527.139 457.757 531.927 436.749 522.068 C 433.246 506.399 429.854 395.295 436.657 385.277 C 440.679 379.353 453.356 379.79 459.561 379.429 z"/>
<path transform="translate(0,0)" fill="rgb(10,36,28)" d="M 1344.42 276.437 C 1365.29 275.404 1394.23 273.991 1395.34 301.684 C 1398.93 391.33 1394.29 480.537 1397.87 570.292 C 1370.96 589.757 1349.99 610.818 1319.54 629.962 L 1102.5 629.933 C 1087.55 629.932 1066.68 632.349 1055.69 622.457 C 1047.86 615.416 1047.65 612.107 1047.28 601.78 C 1046.58 582.521 1047.04 562.736 1047.17 543.492 L 1047.73 436.254 L 1047.02 350.661 C 1046.86 333.061 1046.53 315.287 1047.83 297.741 C 1047.71 291.317 1058.84 279.744 1064.63 278.986 C 1089.81 275.689 1118.81 277.005 1144.11 277.007 L 1268.03 277.049 C 1292.87 277.061 1319.78 277.599 1344.42 276.437 z"/>
<path transform="translate(0,0)" fill="rgb(255,255,255)" d="M 1114.52 329.568 C 1127.8 328.582 1144.37 328.995 1157.86 328.939 C 1189.97 329.297 1211.8 328.427 1245.1 329.806 C 1262.09 330.509 1325.44 325.666 1342.45 334.187 C 1346.32 336.122 1345.25 368.494 1345.24 376.593 L 1345.35 435.264 L 1345.78 522.407 C 1345.73 535.971 1345.7 549.512 1345.24 563.068 C 1344.89 573.451 1341.12 576.672 1330.83 577.217 C 1314.62 578.501 1295.07 578.081 1278.54 578.096 C 1248.94 578.248 1219.34 577.995 1189.74 577.335 C 1163 576.857 1126.37 579.012 1101.2 573.35 C 1099.33 542.346 1096.44 350.914 1102.88 330.459 L 1114.52 329.568 z"/>
<path transform="translate(0,0)" fill="rgb(10,36,28)" d="M 1205.15 379.469 C 1230.43 379.023 1270.58 376.197 1293.23 383.786 C 1298.98 416.533 1298.32 479.978 1294.75 514.689 C 1294.04 521.657 1290.38 523.081 1284.85 526.661 C 1271.56 527.327 1255.97 526.974 1242.5 526.97 C 1222.95 526.983 1171.11 529.488 1155.47 523.74 C 1153.98 523.192 1153.16 521.968 1152.59 520.526 C 1150.59 515.508 1149.92 509.493 1149.51 504.134 C 1148.44 489.905 1147.61 393.121 1152.37 386.199 C 1158.83 376.819 1194.12 379.606 1205.15 379.469 z"/>
<path transform="translate(0,0)" fill="rgb(10,36,28)" d="M 752.288 578.253 C 778.87 577.362 797.679 573.913 795.343 607.896 C 794.875 614.709 794.905 622.983 794.669 629.947 L 826.42 629.994 C 825.71 613.766 826.092 594.76 826.296 578.444 C 837.677 578.664 862.236 574.941 870.931 581.297 C 880.577 588.348 881.296 619.454 872.833 627.392 C 865.271 634.486 837.334 631.161 827.335 630.978 C 826.786 648.086 827.075 666.739 827.003 683.966 C 845.565 685.169 858.333 687.346 875.452 679.936 C 879.699 664.451 877.772 648.349 877.057 632.156 C 889.156 631.06 918.519 629.018 928.631 634.186 C 940.671 640.338 921.192 679.24 940.047 684.109 C 962.652 689.947 1021.87 679.346 1040.64 688.606 C 1045.04 695.253 1044.54 715.594 1043.33 722.888 C 1039 751.855 1007.22 729.679 992.476 740.039 C 984.606 745.569 984.461 779.805 991.489 786.561 C 1006.06 800.567 1027.15 780.748 1040.77 796.284 C 1042.2 800.796 1044.57 809.723 1041.84 813.486 C 1031.12 828.242 1016.76 840.759 1005.56 855.564 C 968.502 904.559 950.116 945.603 930.439 1002.93 C 919.718 1002.77 891.518 1006.86 883.581 1001.75 C 870.21 993.145 884.227 828.243 877.082 799.486 C 871.574 777.317 816.036 797.533 799.548 788.03 C 790.391 777.829 794.581 702.554 794.906 684.939 C 780.456 685.271 763.588 686.983 749.438 683.812 C 747.865 683.459 744.934 682.325 744.519 680.807 C 739.976 664.182 739.2 595.623 743.816 582.13 C 746.069 579.529 748.862 579.23 752.288 578.253 z"/>
<path transform="translate(0,0)" fill="rgb(10,36,28)" d="M 186.655 1443.33 C 211.527 1441.08 221.314 1448.48 242.141 1460.83 C 243.275 1457.23 243.974 1453.6 246.93 1451.38 C 256.763 1444 279.467 1446.94 291.119 1448.17 C 291.413 1490.2 291.426 1532.23 291.16 1574.25 C 291.256 1608.24 292.657 1639.48 289.824 1673.51 C 272.629 1676.39 261.338 1676.51 244.027 1674.8 L 243.372 1647.21 C 243.073 1631.29 242.979 1615.38 243.089 1599.46 C 210.942 1619.08 181.52 1626.14 148.661 1602.69 C 129.998 1589.56 117.446 1569.43 113.862 1546.89 C 105.088 1493.7 132.636 1451.42 186.655 1443.33 z"/>
<path transform="translate(0,0)" fill="rgb(255,255,255)" d="M 191.655 1487.16 C 214.847 1481.15 238.51 1495.12 244.46 1518.33 C 250.411 1541.53 236.388 1565.16 213.167 1571.05 C 190.026 1576.93 166.498 1562.96 160.568 1539.84 C 154.638 1516.71 168.544 1493.15 191.655 1487.16 z"/>
<path transform="translate(0,0)" fill="rgb(10,36,28)" d="M 1018.72 1388.4 C 1032.53 1387.8 1047.11 1388.07 1061 1388.13 C 1063.25 1460.14 1061.67 1539.49 1060.64 1611.87 C 1045.59 1612 1030.54 1612 1015.49 1611.85 L 1014.71 1597.56 C 980.877 1617.59 965.407 1625.3 928.361 1608.02 C 925.027 1606.03 921.779 1603.91 918.624 1601.65 C 892.688 1582.78 879.47 1548.62 883.732 1517.73 C 890.05 1471.94 933.822 1432.66 981.102 1445.28 C 995.664 1449.16 1003.14 1454.62 1014.94 1463.58 C 1013.11 1445.62 1013.87 1411.47 1015.22 1392.92 C 1015.42 1390.19 1016.9 1389.46 1018.72 1388.4 z"/>
<path transform="translate(0,0)" fill="rgb(255,255,255)" d="M 966.686 1487.44 C 989.984 1483.7 1011.92 1499.5 1015.74 1522.79 C 1019.56 1546.07 1003.82 1568.06 980.551 1571.96 C 957.17 1575.87 935.057 1560.05 931.219 1536.65 C 927.381 1513.26 943.28 1491.2 966.686 1487.44 z"/>
<path transform="translate(0,0)" fill="rgb(58,154,59)" d="M 1664.59 1443.31 C 1688.58 1439.26 1703.25 1451.2 1722.62 1462.93 C 1723.04 1458.03 1723.99 1453.08 1724.81 1448.22 C 1741.27 1447.22 1752.46 1446.22 1768.97 1448.28 C 1767.58 1502.79 1767.49 1557.33 1768.71 1611.85 C 1749.19 1613.2 1744.1 1613.32 1724.81 1610.37 C 1723.58 1605.69 1722.69 1601.08 1721.73 1596.34 L 1713.66 1603.03 C 1706.61 1609.42 1701.2 1611.37 1692.2 1613.39 C 1644.29 1624.2 1601.72 1595.32 1592.93 1546.21 C 1588.58 1521.39 1594.43 1495.87 1609.18 1475.43 C 1623.2 1455.85 1641.44 1447.06 1664.59 1443.31 z"/>
<path transform="translate(0,0)" fill="rgb(255,255,255)" d="M 1673.78 1486.69 C 1697.39 1482.7 1719.77 1498.6 1723.76 1522.21 C 1727.75 1545.82 1711.86 1568.19 1688.25 1572.19 C 1664.64 1576.19 1642.25 1560.29 1638.26 1536.67 C 1634.26 1513.06 1650.17 1490.68 1673.78 1486.69 z"/>
<path transform="translate(0,0)" fill="rgb(10,36,28)" d="M 769.551 1441.67 C 818.214 1436.59 861.749 1472 866.709 1520.67 C 871.669 1569.34 836.168 1612.8 787.482 1617.65 C 738.955 1622.48 695.673 1587.12 690.73 1538.6 C 685.786 1490.09 721.046 1446.72 769.551 1441.67 z"/>
<path transform="translate(0,0)" fill="rgb(255,255,255)" d="M 770.218 1486.95 C 793.59 1482.19 816.379 1497.34 821.04 1520.73 C 825.7 1544.12 810.456 1566.85 787.044 1571.41 C 763.773 1575.94 741.216 1560.81 736.583 1537.55 C 731.951 1514.3 746.987 1491.68 770.218 1486.95 z"/>
<path transform="translate(0,0)" fill="rgb(58,154,59)" d="M 1486.2 1443.31 C 1506 1441.33 1525.83 1446.63 1542.01 1458.2 C 1561.85 1472.23 1573.52 1495.32 1577.58 1518.85 C 1580.32 1534.69 1579.41 1542.09 1561.18 1543.4 C 1526.15 1545.91 1492.08 1540.96 1457.09 1544.73 C 1461.81 1564.55 1472.41 1575.24 1493.6 1576.19 C 1509.33 1576.89 1518.49 1570.1 1529.39 1560.02 C 1540.47 1561.72 1553.99 1562.35 1565.78 1563.91 C 1567.66 1564.13 1570.07 1564.65 1570.45 1566.64 C 1571.23 1570.7 1568.16 1575.36 1566.16 1578.55 C 1554.23 1597.76 1532.54 1611.89 1510.31 1615.78 C 1488.35 1619.62 1461.91 1614.4 1443.57 1601.56 C 1405 1574.56 1395.46 1517.12 1422.66 1478.84 C 1438.52 1456.51 1459.96 1447.81 1486.2 1443.31 z"/>
<path transform="translate(0,0)" fill="rgb(255,255,255)" d="M 1486.08 1482.07 C 1509.08 1480.73 1523.07 1490.49 1531.64 1511.27 C 1521.57 1512.38 1510.68 1512.08 1500.5 1512.07 L 1453.88 1512 C 1462.17 1494.27 1468.06 1489.15 1486.08 1482.07 z"/>
<path transform="translate(0,0)" fill="rgb(10,36,28)" d="M 1161.75 1444.38 C 1184.38 1441.79 1209.89 1448.63 1226.49 1464.68 C 1249.32 1486.73 1253.57 1512.59 1254.41 1542.86 C 1235.35 1543.42 1145.81 1541.04 1134.31 1545.64 L 1133.47 1548.06 C 1136.97 1571.11 1162.14 1580.74 1182.7 1575.34 C 1193.56 1572.49 1200.14 1566.88 1207.49 1558.83 C 1218.99 1561.49 1231.7 1561.8 1243.53 1562.12 C 1246.59 1562.15 1247.38 1561.94 1250.14 1563.39 L 1250.5 1565.52 C 1214.71 1645.48 1092.47 1627.19 1083.49 1538.79 C 1078.4 1488.77 1112.89 1449.63 1161.75 1444.38 z"/>
<path transform="translate(0,0)" fill="rgb(255,255,255)" d="M 1166.22 1482.13 C 1189.94 1481.07 1198.89 1492.83 1210.31 1511.03 C 1198.5 1510.93 1186.7 1511.2 1174.91 1511.85 C 1159.63 1512.15 1144.35 1512.19 1129.06 1511.97 C 1130.13 1509.77 1131.24 1507.6 1132.4 1505.45 C 1141.04 1489.57 1150.21 1486.85 1166.22 1482.13 z"/>
<path transform="translate(0,0)" fill="rgb(10,36,28)" d="M 794.889 432.099 C 805.574 432.442 827.041 434.144 837.498 430.838 C 849.435 427.064 838.763 383.069 848.542 381.296 C 864.478 378.406 913.615 376.192 926.683 382.55 C 936.126 393.239 931.336 449.488 931.222 465.323 C 931.081 484.728 892.252 479.109 877.962 479.009 C 877.959 485.454 878.052 491.899 878.241 498.342 C 879.818 503.072 878.98 516.675 878.767 522.18 L 878.261 524.494 L 874.91 526.549 C 859.978 527.26 845.025 527.396 830.083 526.957 C 828.619 527.198 828.407 527.372 827.011 527.899 C 826.271 531.076 826.568 563.986 825.331 573.982 C 820.327 576.346 813.071 580.161 807.628 580.081 C 786.508 579.768 793.83 540.375 795.22 526.956 C 783.502 527.072 752.604 528.524 744.151 522.364 C 738.688 512.157 741.288 469.869 743.511 458.273 C 757.964 454.557 779.794 456.42 794.959 457.146 L 794.889 432.099 z"/>
<path transform="translate(0,0)" fill="rgb(255,255,255)" d="M 834.34 496.903 C 844.231 492.894 870.315 488.759 876.761 499.45 C 877.577 499.412 876.967 499.498 878.241 498.342 C 879.818 503.072 878.98 516.675 878.767 522.18 L 878.261 524.494 L 874.91 526.549 C 859.978 527.26 845.025 527.396 830.083 526.957 C 830.44 525.977 830.919 521.945 831.301 520.207 C 832.117 511.398 831.949 505.533 834.34 496.903 z"/>
<path transform="translate(0,0)" fill="rgb(60,58,63)" d="M 830.083 526.957 C 830.44 525.977 830.919 521.945 831.301 520.207 C 831.798 522.412 831.493 523.432 832.899 524.009 C 840.779 527.239 869.31 522.215 874.91 526.549 C 859.978 527.26 845.025 527.396 830.083 526.957 z"/>
<path transform="translate(0,0)" fill="rgb(110,127,130)" d="M 878.241 498.342 C 879.818 503.072 878.98 516.675 878.767 522.18 C 876.503 517.572 876.222 504.587 876.761 499.45 C 877.577 499.412 876.967 499.498 878.241 498.342 z"/>
<path transform="translate(0,0)" fill="rgb(10,36,28)" d="M 583.487 1443.32 C 595.395 1441.96 616.324 1444.8 627.533 1449.27 C 654.436 1460 667.261 1480.6 678.378 1505.42 C 662.748 1506.65 645.666 1508.74 629.778 1510.18 C 608.347 1464.58 550.779 1487.06 551.866 1531.24 C 552.065 1543.5 557.276 1555.15 566.286 1563.46 C 574.666 1571.21 584.681 1575.4 596.263 1574.9 C 613.249 1574.17 622.604 1561.04 633.063 1549.21 L 643.241 1549.17 C 654.982 1550.19 666.689 1551.57 678.344 1553.31 C 674.444 1562.49 669.949 1570.97 664.556 1579.38 C 638.785 1619.56 576.033 1627.24 538.244 1600.19 C 501.56 1573.92 493.423 1515.11 520.824 1479.12 C 536.869 1458.05 557.637 1447.38 583.487 1443.32 z"/>
<path transform="translate(0,0)" fill="rgb(58,154,59)" d="M 1863.71 1384.36 C 1895.16 1381.86 1890.21 1397.27 1889.16 1422.32 C 1876.92 1421.78 1873.63 1421.4 1862.14 1424.78 C 1837.36 1450.5 1869.71 1449.01 1886.08 1448.99 C 1886.07 1461.87 1886 1474.76 1885.85 1487.64 C 1875.53 1488.01 1864.68 1487.95 1854.31 1488.05 C 1854.17 1506.43 1856.6 1600.46 1853.74 1610.57 C 1851.26 1612.48 1847.43 1612.2 1844.1 1612.37 C 1836.53 1613.21 1816.96 1612.19 1808.26 1611.95 C 1807.89 1570.34 1807.79 1528.73 1807.96 1487.12 L 1785 1487.1 C 1784.96 1474.44 1785.6 1461.49 1786.09 1448.82 C 1794.11 1448.16 1802.13 1448.16 1810.17 1448.05 C 1811.34 1408.86 1822.1 1389.35 1863.71 1384.36 z"/>
<path transform="translate(0,0)" fill="rgb(10,36,28)" d="M 807.503 1003.23 C 818.764 1002.12 861.925 1004.24 873.011 1008.02 C 878.806 1030.36 876.728 1049.82 876.173 1072.51 C 875.908 1083.33 877.882 1095.69 875.708 1106.14 C 858.998 1109.08 829.454 1107.99 811.565 1107.92 C 795.71 1107.85 757.311 1106.19 743.027 1102.72 C 739.914 1089.6 741.162 1069.63 741.742 1055.93 C 754.707 1054.25 780.869 1054.99 794.8 1055.01 C 793.673 1043.24 791.212 1015.35 798.511 1006.5 C 800.725 1003.81 804.06 1003.75 807.503 1003.23 z"/>
<path transform="translate(0,0)" fill="rgb(10,36,28)" d="M 340.659 685.22 C 369.473 684.875 406.645 683.405 434.355 689.866 C 436.339 705.201 435.591 722.234 435.154 737.725 C 434.782 750.892 438.669 781.702 428.136 789.84 C 418.134 790.341 338.951 793.409 336.505 785.597 C 328.677 760.6 332.05 719.461 334.444 692.943 C 334.833 688.625 337.579 687.271 340.659 685.22 z"/>
<path transform="translate(0,0)" fill="rgb(58,154,59)" d="M 1347.02 1388.29 C 1358.9 1387.7 1373.27 1388.04 1385.34 1388.04 C 1385.65 1442.37 1387 1497.02 1386.05 1551.32 C 1385.86 1562.28 1386.5 1602.82 1385.03 1610.84 C 1382.09 1612.69 1378.35 1612.29 1374.75 1612.36 C 1363.53 1612.84 1351.41 1612.24 1340.12 1611.93 C 1339.02 1587.69 1335.85 1398.21 1340.19 1391.51 C 1341.85 1388.94 1344.26 1388.99 1347.02 1388.29 z"/>
<path transform="translate(0,0)" fill="rgb(10,36,28)" d="M 752.151 277.315 C 773.742 276.387 822.817 276.119 842.738 280.626 C 844.638 299.379 845.188 359.346 841.488 377.569 C 839.011 379.536 837.864 378.885 833.934 379.139 C 812.806 381.363 763.019 380.491 743.343 376.435 C 739.584 363.009 739.782 293.051 743.507 281.204 C 746.208 278.567 748.369 278.391 752.151 277.315 z"/>
<path transform="translate(0,0)" fill="rgb(10,36,28)" d="M 404.065 1444.28 C 408.344 1444.04 414.389 1443.26 417.236 1447.09 C 424.604 1456.99 421.02 1478.11 420.311 1489.91 C 419.5 1489.89 418.689 1489.89 417.879 1489.9 C 406.598 1490.06 386.447 1491.18 379.194 1500.07 C 361.391 1521.88 365.88 1584.61 366.83 1611.82 C 351.951 1611.97 337.071 1611.97 322.192 1611.83 L 320.971 1610.98 C 317.153 1600.86 319.804 1469.9 320.293 1449.56 C 330.502 1447.91 356.61 1443.55 364.372 1450.38 C 366.219 1454.38 365.924 1459.07 366.083 1463.6 C 381.198 1452.38 385.228 1447.4 404.065 1444.28 z"/>
<path transform="translate(0,0)" fill="rgb(10,36,28)" d="M 503.35 737.106 C 512.7 737.033 524.01 737.686 533.51 738.016 C 534.295 755.529 533.954 773.395 533.825 790.951 C 578.617 787.622 584.434 792.185 577.525 839.927 C 556.782 846.622 531.158 844.66 509.285 843.981 C 482.33 843.991 465.271 843.659 438.508 841.74 C 431.402 811.368 431.583 785.99 470.797 790.094 C 479.269 790.981 488.028 790.811 496.847 792.077 C 496.139 778.556 491.795 745.052 503.35 737.106 z"/>
<path transform="translate(0,0)" fill="rgb(10,36,28)" d="M 944.687 479.329 C 954.989 477.462 978.109 478.171 985.94 485.661 C 989.617 497.614 989.71 613.577 984.893 627.32 C 982.028 630.253 983.207 629.338 978.643 630.315 C 973.113 631.021 938.635 632.328 937.183 626.401 C 930.199 597.905 934.054 565.329 932.98 535.755 C 932.616 525.737 932.336 490.45 934.971 482.142 C 937.618 479.77 941.056 479.806 944.687 479.329 z"/>
<path transform="translate(0,0)" fill="rgb(10,36,28)" d="M 756.864 1154.26 C 771.771 1153.61 779.179 1154.59 793.82 1156.52 C 794.467 1170.27 794.207 1185.01 794.708 1199.08 L 820.668 1200.13 L 820.517 1233.99 L 797.238 1243.31 C 788.515 1246.54 749.075 1259.32 744.896 1245.96 C 738.266 1224.76 739.721 1178.59 744.771 1157.02 L 756.864 1154.26 z"/>
<path transform="translate(0,0)" fill="rgb(10,36,28)" d="M 741.207 790.073 C 758.315 789.867 775.314 788.67 791.685 793.771 C 793.259 806.394 795.995 889.238 790.663 894.362 C 778.976 896.696 755.748 900.966 745.376 894.766 C 739.755 884.835 740.255 805.424 741.207 790.073 z"/>
<path transform="translate(0,0)" fill="rgb(10,36,28)" d="M 683.974 737.972 C 688.989 737.916 694.837 737.878 699.823 737.666 C 735.494 736.146 741.037 734.804 740.033 772.199 C 739.864 777.874 739.65 783.548 739.392 789.22 C 732.912 789.644 723.613 789.808 717.336 790.572 C 675.076 795.719 685.128 766.782 683.974 737.972 z"/>
<path transform="translate(0,0)" fill="rgb(10,36,28)" d="M 630.219 690.276 C 637.424 683.852 674.973 680.885 681.317 690.897 C 688.543 702.301 683.698 723.77 683.974 737.972 C 666.524 737.683 649.08 740.823 631.278 736.594 C 630.849 724.15 632.025 701.644 630.219 690.276 z"/>
<path transform="translate(0,0)" fill="rgb(10,36,28)" d="M 967.764 276.413 C 995.788 277.692 989.65 298.497 988.786 320.005 C 987.063 323.183 984.87 325.922 982.715 328.831 C 973.386 329.101 963.153 328.948 953.75 328.975 C 947.404 328.966 936.345 330.203 934.803 322.115 C 932.836 311.802 931.148 289.247 935.865 280.12 C 941.792 276.56 960.071 276.734 967.764 276.413 z"/>
<path transform="translate(0,0)" fill="rgb(10,36,28)" d="M 579.258 688.327 C 594.729 684.065 613.57 682.968 628.374 690.036 L 630.219 690.276 C 632.025 701.644 630.849 724.15 631.278 736.594 L 627.874 737.026 C 621.532 738.613 590.021 737.96 581.483 737.895 C 577.873 722.005 575.113 704.341 579.258 688.327 z"/>
<path transform="translate(0,0)" fill="rgb(110,127,130)" d="M 628.374 690.036 L 630.219 690.276 C 632.025 701.644 630.849 724.15 631.278 736.594 L 627.874 737.026 C 629.267 723.804 629.247 703.214 628.374 690.036 z"/>
<path transform="translate(0,0)" fill="rgb(10,36,28)" d="M 752.923 951.373 C 765.179 949.637 779.189 950.854 790.896 955.067 C 795.758 966.193 797.444 990.508 791.75 1001.2 C 788.685 1003.46 785.203 1003.22 781.242 1003.56 C 757.098 1005.8 739.217 1009.71 740.967 976.289 C 741.325 969.443 740.461 959.903 743.277 953.679 C 745.737 951.755 749.641 951.748 752.923 951.373 z"/>
<path transform="translate(0,0)" fill="rgb(10,36,28)" d="M 1121.31 685.457 C 1132.36 683.444 1150.28 685.541 1151.6 699.459 C 1153.63 720.801 1151.46 735.146 1128.39 739.495 C 1094.11 740.392 1093.47 710.282 1105.4 686.116 C 1111.01 686.07 1115.7 685.854 1121.31 685.457 z"/>
<path transform="translate(0,0)" fill="rgb(10,36,28)" d="M 879.308 1107.25 C 889.639 1106.81 901.676 1107.03 912.141 1107 C 910.875 1132.8 910.223 1163.81 893.228 1183.5 C 887.861 1189.99 882.387 1195.07 876.589 1202.39 C 880.49 1177.83 878.481 1133.89 879.308 1107.25 z"/>
</svg>